<svg width="28" height="28" viewBox="0 0 28 28" fill="none" xmlns="http://www.w3.org/2000/svg">
<path fill-rule="evenodd" clip-rule="evenodd" d="M15.5556 15.5556V26.4444C15.5556 26.857 15.3917 27.2527 15.0999 27.5444C14.8082 27.8361 14.4126 28 14 28C13.5874 28 13.1918 27.8361 12.9001 27.5444C12.6083 27.2527 12.4444 26.857 12.4444 26.4444V15.5556H1.55556C1.143 15.5556 0.747335 15.3917 0.455612 15.0999C0.163888 14.8082 0 14.4126 0 14C0 13.5874 0.163888 13.1918 0.455612 12.9001C0.747335 12.6083 1.143 12.4444 1.55556 12.4444H12.4444V1.55556C12.4444 1.143 12.6083 0.747335 12.9001 0.455612C13.1918 0.163888 13.5874 0 14 0C14.4126 0 14.8082 0.163888 15.0999 0.455612C15.3917 0.747335 15.5556 1.143 15.5556 1.55556V12.4444H26.4444C26.857 12.4444 27.2527 12.6083 27.5444 12.9001C27.8361 13.1918 28 13.5874 28 14C28 14.4126 27.8361 14.8082 27.5444 15.0999C27.2527 15.3917 26.857 15.5556 26.4444 15.5556H15.5556Z" fill="#686868"/>
</svg>
