<svg width="40" height="40" viewBox="0 0 40 40" fill="none" xmlns="http://www.w3.org/2000/svg">
<path fill-rule="evenodd" clip-rule="evenodd" d="M20 22.2L12.3004 29.8996C12.0087 30.1913 11.6131 30.3552 11.2005 30.3552C10.7879 30.3552 10.3923 30.1913 10.1006 29.8996C9.80883 29.6078 9.64494 29.2122 9.64494 28.7996C9.64494 28.3871 9.80883 27.9914 10.1006 27.6997L17.8002 20.0001L10.1006 12.3005C9.80883 12.0087 9.64494 11.6131 9.64494 11.2005C9.64494 10.788 9.80883 10.3923 10.1006 10.1006C10.3923 9.80885 10.7879 9.64496 11.2005 9.64496C11.6131 9.64496 12.0087 9.80885 12.3004 10.1006L20 17.8002L27.6997 10.1006C27.9914 9.80885 28.387 9.64496 28.7996 9.64496C29.2122 9.64496 29.6078 9.80885 29.8995 10.1006C30.1913 10.3923 30.3552 10.788 30.3552 11.2005C30.3552 11.6131 30.1913 12.0087 29.8995 12.3005L22.1999 20.0001L29.8995 27.6997C30.1913 27.9914 30.3552 28.3871 30.3552 28.7996C30.3552 29.2122 30.1913 29.6078 29.8995 29.8996C29.6078 30.1913 29.2122 30.3552 28.7996 30.3552C28.387 30.3552 27.9914 30.1913 27.6997 29.8996L20 22.2Z" fill="#DE6161"/>
</svg>
